<svg xmlns="http://www.w3.org/2000/svg" xmlns:xlink="http://www.w3.org/1999/xlink" width="500" zoomAndPan="magnify" viewBox="0 0 375 374.999991" height="500" preserveAspectRatio="xMidYMid meet" version="1.2"><defs><clipPath id="d333befc5a"><path d="M 3.492188 3.492188 L 375 3.492188 L 375 375 L 3.492188 375 Z M 3.492188 3.492188 "/></clipPath><clipPath id="fc22ca305c"><path d="M 189.246094 3.492188 C 86.65625 3.492188 3.492188 86.65625 3.492188 189.246094 C 3.492188 291.835938 86.65625 375 189.246094 375 C 291.835938 375 375 291.835938 375 189.246094 C 375 86.65625 291.835938 3.492188 189.246094 3.492188 Z M 189.246094 3.492188 "/></clipPath><clipPath id="9c61611e86"><path d="M 0.492188 0.492188 L 372 0.492188 L 372 372 L 0.492188 372 Z M 0.492188 0.492188 "/></clipPath><clipPath id="26eaecfa39"><path d="M 186.246094 0.492188 C 83.65625 0.492188 0.492188 83.65625 0.492188 186.246094 C 0.492188 288.835938 83.65625 372 186.246094 372 C 288.835938 372 372 288.835938 372 186.246094 C 372 83.65625 288.835938 0.492188 186.246094 0.492188 Z M 186.246094 0.492188 "/></clipPath><clipPath id="0aa550e1c8"><rect x="0" width="372" y="0" height="372"/></clipPath><clipPath id="4c6915a8ab"><rect x="0" width="375" y="0" height="375"/></clipPath></defs><g id="093e30195d"><g clip-rule="nonzero" clip-path="url(#d333befc5a)"><g clip-rule="nonzero" clip-path="url(#fc22ca305c)"><g transform="matrix(1,0,0,1,3,3)"><g clip-path="url(#0aa550e1c8)"><g clip-rule="nonzero" clip-path="url(#9c61611e86)"><g clip-rule="nonzero" clip-path="url(#26eaecfa39)"><path style=" stroke:none;fill-rule:nonzero;fill:#000000;fill-opacity:1;" d="M 0.492188 0.492188 L 372 0.492188 L 372 372 L 0.492188 372 Z M 0.492188 0.492188 "/></g></g></g></g></g></g><g transform="matrix(1,0,0,1,0,0)"><g clip-path="url(#4c6915a8ab)"><g style="fill:#ffffff;fill-opacity:1;"><g transform="translate(47.451219, 299.881388)"><path style="stroke:none" d="M 67.457031 -214.871094 C 68.492188 -215.113281 69.488281 -215.027344 70.453125 -214.617188 C 71.257812 -214.273438 71.949219 -213.730469 72.523438 -212.984375 C 73.195312 -212.113281 73.707031 -210.925781 74.0625 -209.414062 L 70.335938 -208.542969 L 73.929688 -209.859375 L 83.972656 -182.484375 L 80.378906 -181.164062 L 83.863281 -182.753906 C 84.734375 -180.839844 85.253906 -179.519531 85.425781 -178.789062 C 85.683594 -177.683594 85.527344 -176.636719 84.960938 -175.652344 C 84.585938 -175.007812 84.0625 -174.464844 83.382812 -174.03125 C 82.699219 -173.589844 81.804688 -173.242188 80.691406 -172.980469 C 78.296875 -172.417969 76.429688 -172.554688 75.097656 -173.378906 C 74.238281 -173.914062 73.386719 -174.761719 72.542969 -175.917969 C 72.015625 -176.644531 71.398438 -177.460938 70.691406 -178.375 C 69.984375 -179.285156 69.257812 -180.191406 68.507812 -181.09375 L 68.464844 -181.144531 L 68.421875 -181.199219 C 65.902344 -184.457031 62.386719 -187.484375 57.878906 -190.28125 C 46.910156 -196.808594 35.839844 -198.761719 24.667969 -196.144531 C 18.15625 -194.617188 12.464844 -191.023438 7.597656 -185.363281 C 3.03125 -180.054688 1.359375 -174.789062 2.582031 -169.566406 C 3.960938 -163.679688 6.226562 -158.871094 9.371094 -155.144531 C 12.664062 -151.246094 16.601562 -147.839844 21.195312 -144.921875 C 25.929688 -141.910156 31.191406 -139.195312 36.976562 -136.773438 L 55.214844 -129.1875 C 71.808594 -122.574219 84.007812 -116.375 91.816406 -110.597656 C 104.28125 -101.507812 112.605469 -89.941406 116.789062 -75.890625 L 116.820312 -75.785156 L 116.84375 -75.671875 C 120.644531 -59.464844 117.445312 -45.046875 107.246094 -32.425781 C 97.28125 -20.09375 84.246094 -12.039062 68.132812 -8.265625 C 57.925781 -5.875 49.488281 -5.015625 42.824219 -5.6875 C 36.515625 -6.324219 32.128906 -6.832031 29.652344 -7.207031 C 27.726562 -7.5 26.496094 -7.582031 25.960938 -7.457031 C 25.539062 -7.359375 25.210938 -7.273438 24.980469 -7.203125 C 24.917969 -7.179688 24.875 -7.167969 24.855469 -7.160156 C 24.957031 -7.199219 25.074219 -7.261719 25.207031 -7.339844 L 25.007812 -7.21875 L 18.273438 -4.121094 L 17.898438 -4.03125 C 16.09375 -3.609375 14.476562 -3.992188 13.039062 -5.175781 C 12.066406 -5.976562 11.28125 -7.136719 10.691406 -8.648438 L 10.675781 -8.695312 L 10.65625 -8.742188 C 2.921875 -30.15625 -1.121094 -41.621094 -1.476562 -43.132812 C -1.921875 -45.039062 -2.039062 -46.53125 -1.824219 -47.609375 C -1.570312 -48.875 -0.898438 -49.894531 0.199219 -50.671875 C 0.878906 -51.152344 1.703125 -51.507812 2.671875 -51.734375 C 5.269531 -52.34375 7.839844 -51.410156 10.378906 -48.929688 C 12.179688 -47.171875 14.09375 -44.488281 16.113281 -40.875 L 12.773438 -39.003906 L 15.78125 -41.371094 C 22.28125 -33.113281 29.617188 -27.527344 37.78125 -24.613281 C 45.933594 -21.707031 55.023438 -21.429688 65.054688 -23.78125 C 74.015625 -25.878906 81.023438 -30.371094 86.074219 -37.253906 C 90.984375 -43.945312 92.449219 -51.53125 90.464844 -60 C 87.164062 -74.078125 75.394531 -85.332031 55.152344 -93.761719 C 49.121094 -96.230469 40.453125 -99.617188 29.140625 -103.929688 C 17.492188 -108.367188 7.851562 -113.304688 0.210938 -118.746094 C -12.054688 -127.402344 -19.769531 -138.488281 -22.9375 -152 C -26.160156 -165.765625 -23.332031 -178.3125 -14.445312 -189.648438 C -5.761719 -200.730469 5.5 -207.890625 19.339844 -211.132812 C 26.390625 -212.785156 34.398438 -213.402344 43.363281 -212.980469 C 51.929688 -212.582031 57.875 -212.355469 61.195312 -212.308594 L 61.136719 -208.480469 L 59.808594 -212.070312 L 67.226562 -214.816406 Z M 69.203125 -207.417969 L 68.332031 -211.144531 L 69.660156 -207.554688 L 61.796875 -204.644531 L 61.082031 -204.65625 C 57.679688 -204.703125 51.652344 -204.933594 43.003906 -205.335938 C 34.75 -205.722656 27.445312 -205.171875 21.085938 -203.679688 C 8.992188 -200.847656 -0.84375 -194.597656 -8.421875 -184.929688 C -15.796875 -175.519531 -18.152344 -165.125 -15.484375 -153.746094 C -12.761719 -142.121094 -6.046875 -132.53125 4.652344 -124.980469 C 11.757812 -119.917969 20.828125 -115.285156 31.863281 -111.082031 C 43.234375 -106.75 51.976562 -103.332031 58.09375 -100.828125 C 80.746094 -91.394531 94.019531 -78.367188 97.914062 -61.746094 C 100.4375 -50.988281 98.546875 -41.3125 92.242188 -32.726562 C 86.078125 -24.324219 77.597656 -18.859375 66.800781 -16.328125 C 55.308594 -13.636719 44.777344 -13.992188 35.210938 -17.40625 C 25.660156 -20.808594 17.179688 -27.222656 9.765625 -36.636719 L 9.582031 -36.875 L 9.433594 -37.136719 C 7.773438 -40.105469 6.308594 -42.210938 5.03125 -43.453125 C 4.597656 -43.878906 4.246094 -44.148438 3.980469 -44.265625 C 4.0625 -44.226562 4.210938 -44.234375 4.417969 -44.28125 C 4.367188 -44.269531 4.339844 -44.261719 4.332031 -44.261719 C 4.421875 -44.296875 4.519531 -44.351562 4.628906 -44.429688 C 5.1875 -44.828125 5.539062 -45.386719 5.683594 -46.117188 C 5.707031 -46.226562 5.71875 -46.316406 5.71875 -46.382812 C 5.71875 -46.339844 5.722656 -46.269531 5.734375 -46.171875 C 5.769531 -45.847656 5.851562 -45.414062 5.976562 -44.878906 C 6.261719 -43.65625 10.222656 -32.476562 17.855469 -11.339844 L 14.257812 -10.039062 L 17.824219 -11.433594 C 17.90625 -11.214844 17.984375 -11.054688 18.054688 -10.945312 L 18.050781 -10.941406 C 18.015625 -10.984375 17.964844 -11.03125 17.90625 -11.078125 C 17.394531 -11.503906 16.808594 -11.636719 16.152344 -11.484375 L 17.027344 -7.757812 L 15.425781 -11.234375 L 21.597656 -14.078125 L 23.199219 -10.601562 L 21.191406 -13.859375 C 21.789062 -14.226562 22.796875 -14.574219 24.214844 -14.910156 C 25.707031 -15.257812 27.902344 -15.214844 30.800781 -14.773438 C 33.148438 -14.417969 37.414062 -13.929688 43.59375 -13.304688 C 49.410156 -12.714844 57.007812 -13.519531 66.386719 -15.71875 C 80.792969 -19.09375 92.429688 -26.265625 101.292969 -37.234375 C 109.921875 -47.917969 112.621094 -60.148438 109.394531 -73.925781 L 113.121094 -74.800781 L 109.453125 -73.707031 C 105.761719 -86.105469 98.367188 -96.351562 87.265625 -104.445312 C 79.988281 -109.832031 68.324219 -115.722656 52.277344 -122.121094 L 34.019531 -129.710938 C 27.835938 -132.300781 22.191406 -135.21875 17.089844 -138.460938 C 11.839844 -141.800781 7.316406 -145.714844 3.523438 -150.207031 C -0.414062 -154.871094 -3.210938 -160.742188 -4.871094 -167.820312 C -6.683594 -175.566406 -4.464844 -183.078125 1.792969 -190.351562 C 7.746094 -197.277344 14.789062 -201.691406 22.921875 -203.597656 C 36.097656 -206.683594 49.09375 -204.414062 61.910156 -196.785156 C 67.203125 -193.503906 71.390625 -189.867188 74.476562 -185.882812 L 71.449219 -183.539062 L 74.390625 -185.988281 C 75.195312 -185.019531 75.976562 -184.046875 76.738281 -183.066406 C 77.496094 -182.089844 78.160156 -181.207031 78.734375 -180.421875 C 78.90625 -180.183594 79.054688 -180 79.179688 -179.871094 C 79.210938 -179.839844 79.230469 -179.816406 79.246094 -179.804688 C 79.21875 -179.828125 79.183594 -179.851562 79.132812 -179.882812 C 78.699219 -180.152344 78.324219 -180.28125 78.011719 -180.273438 C 78.203125 -180.277344 78.515625 -180.332031 78.945312 -180.433594 C 79.140625 -180.480469 79.292969 -180.523438 79.402344 -180.5625 L 79.414062 -180.566406 C 79.363281 -180.542969 79.308594 -180.507812 79.246094 -180.46875 C 78.882812 -180.234375 78.578125 -179.90625 78.332031 -179.480469 C 77.890625 -178.71875 77.773438 -177.90625 77.972656 -177.042969 C 77.917969 -177.28125 77.558594 -178.128906 76.898438 -179.578125 L 76.835938 -179.710938 L 66.664062 -207.441406 L 66.609375 -207.667969 C 66.539062 -207.96875 66.46875 -208.203125 66.402344 -208.375 C 66.386719 -208.414062 66.375 -208.4375 66.371094 -208.449219 C 66.390625 -208.410156 66.421875 -208.367188 66.460938 -208.3125 C 66.703125 -208 67.03125 -207.753906 67.453125 -207.578125 C 68.027344 -207.332031 68.609375 -207.277344 69.203125 -207.417969 Z M 69.203125 -207.417969 "/></g></g><g style="fill:#ffffff;fill-opacity:1;"><g transform="translate(120.043034, 281.167468)"><path style="stroke:none" d=""/></g></g><g style="fill:#ffffff;fill-opacity:1;"><g transform="translate(123.478876, 268.329207)"><path style="stroke:none" d="M 185.953125 6.136719 C 184.425781 8.332031 181.914062 8.933594 178.417969 7.941406 C 176.957031 7.523438 175.191406 7.265625 173.128906 7.164062 C 171.054688 7.058594 167.980469 7.351562 163.910156 8.042969 L 143.394531 11.507812 C 133.789062 13.128906 125.046875 13.746094 117.167969 13.351562 C 99.375 12.464844 82.339844 7.417969 66.066406 -1.78125 C 49.714844 -11.027344 36.898438 -23.632812 27.609375 -39.597656 C 18.289062 -55.621094 14.140625 -73.828125 15.15625 -94.21875 C 16.171875 -114.570312 22.117188 -132.761719 32.996094 -148.792969 C 48.863281 -172.304688 71.695312 -186.980469 101.496094 -192.824219 C 110.960938 -194.695312 120.375 -195.394531 129.738281 -194.929688 C 142.441406 -194.296875 157.34375 -191.429688 174.441406 -186.328125 C 179.6875 -184.761719 184.136719 -183.175781 187.785156 -181.578125 C 189.464844 -180.84375 190.804688 -180.292969 191.8125 -179.925781 C 192.257812 -179.761719 192.617188 -179.644531 192.894531 -179.566406 C 192.984375 -179.539062 193.054688 -179.523438 193.105469 -179.511719 C 193.066406 -179.519531 193.003906 -179.527344 192.921875 -179.53125 L 192.730469 -175.707031 L 191.929688 -179.449219 L 196.546875 -180.4375 L 201.253906 -180.203125 C 203.117188 -180.109375 204.53125 -179.308594 205.488281 -177.792969 C 206.175781 -176.710938 206.476562 -175.378906 206.398438 -173.800781 L 204.292969 -131.589844 C 204.246094 -130.65625 203.972656 -129.816406 203.46875 -129.066406 C 202.976562 -128.332031 202.320312 -127.765625 201.5 -127.359375 C 200.488281 -126.863281 199.246094 -126.648438 197.769531 -126.722656 C 196.6875 -126.777344 195.777344 -126.902344 195.046875 -127.097656 C 193.574219 -127.488281 192.511719 -128.238281 191.855469 -129.335938 C 191.5 -129.929688 191.167969 -130.617188 190.851562 -131.402344 C 190.625 -131.96875 190.375 -132.558594 190.105469 -133.167969 C 189.855469 -133.742188 189.601562 -134.273438 189.351562 -134.757812 C 188.9375 -135.550781 188.660156 -136.214844 188.511719 -136.746094 L 192.199219 -137.773438 L 188.691406 -136.238281 C 182.859375 -149.566406 175.242188 -159.691406 165.839844 -166.609375 C 156.503906 -173.476562 145.320312 -177.234375 132.289062 -177.886719 C 108.550781 -179.070312 89.675781 -172.503906 75.664062 -158.191406 C 61.527344 -143.746094 53.828125 -123.953125 52.574219 -98.816406 C 51.320312 -73.625 57.664062 -51.644531 71.613281 -32.878906 C 85.386719 -14.347656 104.929688 -4.449219 130.238281 -3.183594 C 143.894531 -2.503906 156.539062 -5.9375 168.175781 -13.492188 C 180.015625 -21.179688 189.488281 -30.847656 196.597656 -42.503906 L 199.863281 -40.507812 L 196.296875 -41.898438 C 196.785156 -43.152344 197.652344 -44.050781 198.898438 -44.597656 C 199.726562 -44.960938 200.671875 -45.117188 201.722656 -45.066406 L 203.488281 -44.976562 C 205.132812 -44.894531 206.421875 -44.234375 207.355469 -42.996094 C 208.121094 -41.976562 208.46875 -40.734375 208.394531 -39.265625 C 208.308594 -37.53125 207.800781 -35.902344 206.867188 -34.378906 L 203.605469 -36.378906 L 207.003906 -34.625 L 186.097656 5.929688 Z M 179.675781 1.761719 L 182.8125 3.949219 L 179.414062 2.195312 L 200.265625 -38.253906 L 200.339844 -38.375 C 200.59375 -38.789062 200.730469 -39.210938 200.75 -39.648438 C 200.734375 -39.269531 200.894531 -38.851562 201.238281 -38.394531 C 201.742188 -37.722656 202.367188 -37.371094 203.105469 -37.332031 L 201.34375 -37.421875 C 201.492188 -37.414062 201.703125 -37.46875 201.976562 -37.589844 C 202.664062 -37.890625 203.148438 -38.402344 203.429688 -39.121094 L 203.308594 -38.804688 L 203.132812 -38.515625 C 195.417969 -25.871094 185.15625 -15.390625 172.339844 -7.074219 C 159.320312 1.378906 145.160156 5.222656 129.859375 4.460938 C 102.144531 3.078125 80.679688 -7.847656 65.46875 -28.316406 C 50.429688 -48.550781 43.582031 -72.175781 44.929688 -99.195312 C 46.28125 -126.269531 54.703125 -147.71875 70.195312 -163.542969 C 85.816406 -179.5 106.640625 -186.828125 132.671875 -185.53125 C 147.234375 -184.804688 159.804688 -180.550781 170.375 -172.773438 C 180.878906 -165.046875 189.324219 -153.890625 195.703125 -139.304688 L 195.8125 -139.058594 L 195.882812 -138.800781 L 195.898438 -138.792969 C 195.957031 -138.65625 196.039062 -138.488281 196.144531 -138.28125 C 196.472656 -137.648438 196.796875 -136.972656 197.113281 -136.246094 C 197.414062 -135.5625 197.695312 -134.898438 197.953125 -134.261719 C 198.117188 -133.84375 198.277344 -133.511719 198.425781 -133.261719 C 198.140625 -133.738281 197.78125 -134.097656 197.339844 -134.347656 C 197.203125 -134.421875 197.097656 -134.472656 197.023438 -134.492188 C 197.230469 -134.4375 197.605469 -134.394531 198.152344 -134.367188 C 198.324219 -134.359375 198.449219 -134.359375 198.523438 -134.371094 C 198.421875 -134.355469 198.285156 -134.308594 198.121094 -134.226562 C 197.714844 -134.027344 197.378906 -133.726562 197.109375 -133.324219 C 196.828125 -132.902344 196.671875 -132.449219 196.648438 -131.972656 L 198.753906 -174.183594 C 198.757812 -174.246094 198.757812 -174.300781 198.757812 -174.339844 L 198.761719 -174.316406 C 198.796875 -174.121094 198.886719 -173.914062 199.023438 -173.695312 C 199.480469 -172.976562 200.097656 -172.597656 200.875 -172.558594 L 196.664062 -172.769531 L 196.855469 -176.589844 L 197.65625 -172.847656 L 193.039062 -171.863281 L 192.539062 -171.886719 C 191.257812 -171.949219 188.648438 -172.84375 184.714844 -174.566406 C 181.351562 -176.039062 177.195312 -177.515625 172.253906 -178.996094 C 155.746094 -183.917969 141.445312 -186.683594 129.355469 -187.285156 C 120.621094 -187.722656 111.824219 -187.0625 102.96875 -185.3125 C 75.238281 -179.875 54.023438 -166.269531 39.328125 -144.496094 C 29.253906 -129.644531 23.746094 -112.757812 22.800781 -93.835938 C 21.859375 -74.957031 25.667969 -58.160156 34.226562 -43.445312 C 42.816406 -28.675781 54.6875 -17.007812 69.832031 -8.445312 C 85.054688 0.160156 100.960938 4.878906 117.550781 5.707031 C 124.875 6.074219 133.0625 5.492188 142.121094 3.960938 L 162.632812 0.496094 C 167.253906 -0.289062 170.878906 -0.613281 173.511719 -0.480469 C 176.152344 -0.351562 178.488281 0.00390625 180.511719 0.578125 C 180.925781 0.695312 181.175781 0.75 181.257812 0.742188 C 180.636719 0.800781 180.109375 1.140625 179.675781 1.761719 Z M 179.675781 1.761719 "/></g></g><g style="fill:#ffffff;fill-opacity:1;"><g transform="translate(265.340854, 275.250762)"><path style="stroke:none" d=""/></g></g><g style="fill:#ffffff;fill-opacity:1;"><g transform="translate(280.975811, 277.698058)"><path style="stroke:none" d=""/></g></g><g style="fill:#ffffff;fill-opacity:1;"><g transform="translate(296.799884, 280.990547)"><path style="stroke:none" d="M 17.25 -8.972656 C 18.980469 -14.585938 22.46875 -18.84375 27.714844 -21.746094 C 33.007812 -24.679688 38.511719 -25.261719 44.222656 -23.5 C 49.824219 -21.773438 54.019531 -18.265625 56.820312 -12.96875 C 59.621094 -7.671875 60.128906 -2.140625 58.347656 3.632812 C 56.558594 9.433594 53.046875 13.648438 47.8125 16.285156 C 42.628906 18.890625 37.210938 19.320312 31.554688 17.578125 C 25.984375 15.859375 21.777344 12.433594 18.933594 7.304688 C 16.0625 2.125 15.5 -3.300781 17.25 -8.972656 Z M 24.5625 -6.714844 C 23.457031 -3.125 23.8125 0.3125 25.628906 3.59375 C 27.476562 6.929688 30.203125 9.152344 33.8125 10.261719 C 37.503906 11.402344 41.023438 11.128906 44.371094 9.445312 C 47.664062 7.789062 49.886719 5.097656 51.035156 1.375 C 52.191406 -2.375 51.863281 -5.964844 50.054688 -9.390625 C 48.242188 -12.820312 45.546875 -15.082031 41.96875 -16.1875 C 38.332031 -17.308594 34.816406 -16.929688 31.421875 -15.050781 C 27.976562 -13.144531 25.691406 -10.367188 24.5625 -6.714844 Z M 24.5625 -6.714844 "/></g></g><g style="fill:#ffffff;fill-opacity:1;"><g transform="translate(47.451219, 299.881388)"><path style="stroke:none" d="M 68.328125 -211.140625 C 69.210938 -211.347656 69.882812 -210.484375 70.34375 -208.546875 L 80.375 -181.15625 C 81.144531 -179.488281 81.585938 -178.410156 81.703125 -177.921875 C 81.816406 -177.429688 81.1875 -177.023438 79.8125 -176.703125 C 78.445312 -176.390625 77.546875 -176.363281 77.109375 -176.625 C 76.679688 -176.894531 76.191406 -177.410156 75.640625 -178.171875 C 75.085938 -178.929688 74.441406 -179.78125 73.703125 -180.71875 C 72.972656 -181.664062 72.222656 -182.609375 71.453125 -183.546875 C 68.660156 -187.171875 64.804688 -190.5 59.890625 -193.53125 C 47.992188 -200.613281 35.960938 -202.726562 23.796875 -199.875 C 16.472656 -198.15625 10.101562 -194.148438 4.6875 -187.859375 C -0.71875 -181.566406 -2.660156 -175.175781 -1.140625 -168.6875 C 0.378906 -162.207031 2.90625 -156.867188 6.4375 -152.671875 C 9.976562 -148.484375 14.210938 -144.820312 19.140625 -141.6875 C 24.066406 -138.5625 29.519531 -135.742188 35.5 -133.234375 C 41.476562 -130.734375 47.5625 -128.207031 53.75 -125.65625 C 70.070312 -119.15625 82.003906 -113.113281 89.546875 -107.53125 C 101.328125 -98.925781 109.1875 -88.015625 113.125 -74.796875 C 116.632812 -59.804688 113.679688 -46.484375 104.265625 -34.828125 C 94.859375 -23.171875 82.523438 -15.554688 67.265625 -11.984375 C 57.472656 -9.691406 49.453125 -8.863281 43.203125 -9.5 C 36.953125 -10.132812 32.625 -10.632812 30.21875 -11 C 27.8125 -11.363281 26.097656 -11.425781 25.078125 -11.1875 C 24.054688 -10.945312 23.429688 -10.753906 23.203125 -10.609375 L 17.015625 -7.765625 C 15.867188 -7.492188 14.953125 -8.25 14.265625 -10.03125 C 6.578125 -31.320312 2.570312 -42.648438 2.25 -44.015625 C 1.925781 -45.378906 1.816406 -46.328125 1.921875 -46.859375 C 2.023438 -47.390625 2.566406 -47.769531 3.546875 -48 C 6.003906 -48.582031 9.082031 -45.585938 12.78125 -39.015625 C 26.695312 -21.328125 44.414062 -15.003906 65.9375 -20.046875 C 75.8125 -22.359375 83.550781 -27.335938 89.15625 -34.984375 C 94.769531 -42.628906 96.445312 -51.257812 94.1875 -60.875 C 90.59375 -76.21875 78.066406 -88.359375 56.609375 -97.296875 C 50.546875 -99.773438 41.84375 -103.175781 30.5 -107.5 C 19.164062 -111.820312 9.8125 -116.613281 2.4375 -121.875 C -9.039062 -129.96875 -16.253906 -140.300781 -19.203125 -152.875 C -22.148438 -165.445312 -19.554688 -176.914062 -11.421875 -187.28125 C -3.296875 -197.65625 7.25 -204.363281 20.21875 -207.40625 C 26.914062 -208.976562 34.566406 -209.5625 43.171875 -209.15625 C 51.785156 -208.757812 57.773438 -208.539062 61.140625 -208.5 Z M 68.328125 -211.140625 "/></g></g><g style="fill:#ffffff;fill-opacity:1;"><g transform="translate(120.043034, 281.167468)"><path style="stroke:none" d=""/></g></g><g style="fill:#ffffff;fill-opacity:1;"><g transform="translate(123.478876, 268.329207)"><path style="stroke:none" d="M 182.796875 3.9375 C 182.316406 4.644531 181.207031 4.75 179.46875 4.25 C 177.726562 3.757812 175.675781 3.453125 173.3125 3.328125 C 170.957031 3.210938 167.609375 3.519531 163.265625 4.25 C 158.921875 4.988281 152.082031 6.148438 142.75 7.734375 C 133.425781 9.316406 124.960938 9.914062 117.359375 9.53125 C 100.171875 8.675781 83.703125 3.796875 67.953125 -5.109375 C 52.210938 -14.015625 39.867188 -26.15625 30.921875 -41.53125 C 21.972656 -56.90625 17.988281 -74.40625 18.96875 -94.03125 C 19.945312 -113.664062 25.679688 -131.203125 36.171875 -146.640625 C 51.453125 -169.285156 73.472656 -183.425781 102.234375 -189.0625 C 111.390625 -190.875 120.488281 -191.554688 129.53125 -191.109375 C 141.9375 -190.484375 156.539062 -187.671875 173.34375 -182.671875 C 178.4375 -181.140625 182.734375 -179.601562 186.234375 -178.0625 C 189.742188 -176.53125 191.90625 -175.742188 192.71875 -175.703125 L 196.859375 -176.59375 L 201.078125 -176.390625 C 202.148438 -176.335938 202.644531 -175.539062 202.5625 -174 L 200.46875 -131.796875 C 200.414062 -130.890625 199.578125 -130.472656 197.953125 -130.546875 C 196.328125 -130.628906 195.390625 -130.878906 195.140625 -131.296875 C 194.890625 -131.722656 194.644531 -132.234375 194.40625 -132.828125 C 194.164062 -133.429688 193.898438 -134.054688 193.609375 -134.703125 C 193.328125 -135.347656 193.039062 -135.953125 192.75 -136.515625 C 192.457031 -137.078125 192.269531 -137.5 192.1875 -137.78125 C 179.988281 -165.695312 160.085938 -180.34375 132.484375 -181.71875 C 107.597656 -182.957031 87.742188 -176.003906 72.921875 -160.859375 C 58.109375 -145.722656 50.050781 -125.101562 48.75 -99 C 47.445312 -72.894531 54.046875 -50.09375 68.546875 -30.59375 C 83.046875 -11.101562 103.550781 -0.695312 130.0625 0.625 C 144.539062 1.351562 157.941406 -2.28125 170.265625 -10.28125 C 182.585938 -18.28125 192.457031 -28.359375 199.875 -40.515625 C 200.070312 -41.046875 200.625 -41.289062 201.53125 -41.25 L 203.296875 -41.15625 C 204.203125 -41.113281 204.628906 -40.546875 204.578125 -39.453125 C 204.523438 -38.367188 204.203125 -37.34375 203.609375 -36.375 Z M 182.796875 3.9375 "/></g></g><g style="fill:#ffffff;fill-opacity:1;"><g transform="translate(265.340854, 275.250762)"><path style="stroke:none" d=""/></g></g><g style="fill:#ffffff;fill-opacity:1;"><g transform="translate(280.975811, 277.698058)"><path style="stroke:none" d=""/></g></g><g style="fill:#ffffff;fill-opacity:1;"><g transform="translate(296.799884, 280.990547)"><path style="stroke:none" d="M 20.921875 -7.84375 C 22.347656 -12.476562 25.226562 -16 29.5625 -18.40625 C 33.90625 -20.8125 38.414062 -21.296875 43.09375 -19.859375 C 47.675781 -18.441406 51.117188 -15.550781 53.421875 -11.1875 C 55.734375 -6.820312 56.15625 -2.257812 54.6875 2.5 C 53.21875 7.269531 50.351562 10.726562 46.09375 12.875 C 41.832031 15.019531 37.363281 15.367188 32.6875 13.921875 C 28.09375 12.503906 24.625 9.675781 22.28125 5.4375 C 19.945312 1.207031 19.492188 -3.21875 20.921875 -7.84375 Z M 20.921875 -7.84375 "/></g></g></g></g></g></svg>