<svg xmlns="http://www.w3.org/2000/svg" xmlns:xlink="http://www.w3.org/1999/xlink" width="500" zoomAndPan="magnify" viewBox="0 0 375 374.999991" height="500" preserveAspectRatio="xMidYMid meet" version="1.2"><defs><clipPath id="e45ae413e0"><path d="M 3.492188 3.492188 L 375 3.492188 L 375 375 L 3.492188 375 Z M 3.492188 3.492188 "/></clipPath><clipPath id="218429168d"><path d="M 189.246094 3.492188 C 86.65625 3.492188 3.492188 86.65625 3.492188 189.246094 C 3.492188 291.835938 86.65625 375 189.246094 375 C 291.835938 375 375 291.835938 375 189.246094 C 375 86.65625 291.835938 3.492188 189.246094 3.492188 Z M 189.246094 3.492188 "/></clipPath><clipPath id="4bf0f3092b"><path d="M 0.492188 0.492188 L 372 0.492188 L 372 372 L 0.492188 372 Z M 0.492188 0.492188 "/></clipPath><clipPath id="6df6e94450"><path d="M 186.246094 0.492188 C 83.65625 0.492188 0.492188 83.65625 0.492188 186.246094 C 0.492188 288.835938 83.65625 372 186.246094 372 C 288.835938 372 372 288.835938 372 186.246094 C 372 83.65625 288.835938 0.492188 186.246094 0.492188 Z M 186.246094 0.492188 "/></clipPath><clipPath id="9df49447e2"><rect x="0" width="372" y="0" height="372"/></clipPath><clipPath id="b5e2be5b0b"><rect x="0" width="319" y="0" height="373"/></clipPath></defs><g id="80ae383d84"><g clip-rule="nonzero" clip-path="url(#e45ae413e0)"><g clip-rule="nonzero" clip-path="url(#218429168d)"><g transform="matrix(1,0,0,1,3,3)"><g clip-path="url(#9df49447e2)"><g clip-rule="nonzero" clip-path="url(#4bf0f3092b)"><g clip-rule="nonzero" clip-path="url(#6df6e94450)"><path style=" stroke:none;fill-rule:nonzero;fill:#000000;fill-opacity:1;" d="M 0.492188 0.492188 L 372 0.492188 L 372 372 L 0.492188 372 Z M 0.492188 0.492188 "/></g></g></g></g></g></g><g style="fill:#ffffff;fill-opacity:1;"><g transform="translate(35.877626, 308.853032)"><path style="stroke:none" d="M 77.863281 -225.300781 C 78.964844 -225.527344 80.015625 -225.40625 81.023438 -224.945312 C 81.867188 -224.558594 82.582031 -223.960938 83.167969 -223.15625 C 83.851562 -222.210938 84.355469 -220.9375 84.683594 -219.332031 L 80.714844 -218.519531 L 84.558594 -219.804688 L 94.359375 -190.539062 L 90.515625 -189.25 L 94.25 -190.824219 C 95.113281 -188.777344 95.625 -187.363281 95.785156 -186.585938 C 96.023438 -185.40625 95.828125 -184.304688 95.195312 -183.28125 C 94.78125 -182.605469 94.207031 -182.050781 93.480469 -181.609375 C 92.742188 -181.167969 91.785156 -180.824219 90.601562 -180.582031 C 88.046875 -180.0625 86.078125 -180.257812 84.691406 -181.171875 C 83.800781 -181.765625 82.921875 -182.683594 82.066406 -183.9375 C 81.53125 -184.71875 80.902344 -185.601562 80.179688 -186.589844 C 79.460938 -187.574219 78.71875 -188.554688 77.953125 -189.53125 L 77.90625 -189.589844 L 77.867188 -189.648438 C 75.296875 -193.171875 71.667969 -196.480469 66.984375 -199.578125 C 55.574219 -206.8125 43.921875 -209.214844 32.023438 -206.78125 C 25.085938 -205.363281 18.957031 -201.734375 13.636719 -195.890625 C 8.644531 -190.410156 6.71875 -184.890625 7.855469 -179.328125 C 9.136719 -173.058594 11.386719 -167.902344 14.601562 -163.863281 C 17.964844 -159.640625 22.03125 -155.917969 26.800781 -152.691406 C 31.722656 -149.363281 37.207031 -146.328125 43.253906 -143.59375 L 62.324219 -135.015625 C 79.679688 -127.519531 92.398438 -120.59375 100.488281 -114.242188 C 113.402344 -104.25 121.855469 -91.757812 125.855469 -76.769531 L 125.886719 -76.652344 L 125.910156 -76.535156 C 129.441406 -59.269531 125.621094 -44.113281 114.449219 -31.066406 C 103.535156 -18.320312 89.496094 -10.195312 72.335938 -6.6875 C 61.464844 -4.464844 52.511719 -3.8125 45.480469 -4.726562 C 38.828125 -5.589844 34.199219 -6.257812 31.589844 -6.730469 C 29.5625 -7.097656 28.261719 -7.222656 27.691406 -7.105469 C 27.242188 -7.011719 26.894531 -6.933594 26.648438 -6.863281 C 26.578125 -6.847656 26.535156 -6.832031 26.515625 -6.824219 C 26.625 -6.863281 26.75 -6.925781 26.890625 -7.007812 L 26.679688 -6.882812 L 19.460938 -3.808594 L 19.058594 -3.726562 C 17.136719 -3.332031 15.433594 -3.785156 13.953125 -5.082031 C 12.945312 -5.960938 12.152344 -7.207031 11.574219 -8.828125 L 11.554688 -8.875 L 11.539062 -8.925781 C 4.003906 -31.820312 0.0703125 -44.070312 -0.257812 -45.679688 C -0.671875 -47.710938 -0.75 -49.292969 -0.492188 -50.425781 C -0.1875 -51.757812 0.558594 -52.816406 1.742188 -53.609375 C 2.472656 -54.09375 3.355469 -54.445312 4.390625 -54.65625 C 7.15625 -55.222656 9.847656 -54.15625 12.457031 -51.457031 C 14.3125 -49.542969 16.253906 -46.640625 18.285156 -42.757812 L 14.695312 -40.882812 L 17.945312 -43.296875 C 24.578125 -34.359375 32.167969 -28.226562 40.71875 -24.902344 C 49.253906 -21.582031 58.867188 -21.011719 69.546875 -23.195312 C 79.09375 -25.144531 86.640625 -29.6875 92.191406 -36.816406 C 97.59375 -43.75 99.371094 -51.726562 97.527344 -60.75 C 94.460938 -75.742188 82.347656 -88.007812 61.183594 -97.539062 C 54.878906 -100.332031 45.808594 -104.179688 33.96875 -109.078125 C 21.78125 -114.128906 11.726562 -119.644531 3.808594 -125.632812 C -8.90625 -135.160156 -16.734375 -147.121094 -19.675781 -161.515625 C -22.671875 -176.171875 -19.300781 -189.367188 -9.554688 -201.09375 C -0.03125 -212.550781 12.101562 -219.789062 26.839844 -222.800781 C 34.347656 -224.335938 42.839844 -224.746094 52.3125 -224.03125 C 61.363281 -223.351562 67.648438 -222.933594 71.160156 -222.78125 L 70.984375 -218.734375 L 69.6875 -222.570312 L 77.617188 -225.25 Z M 79.484375 -217.363281 L 78.671875 -221.332031 L 79.972656 -217.496094 L 71.5625 -214.652344 L 70.808594 -214.6875 C 67.210938 -214.84375 60.839844 -215.265625 51.703125 -215.953125 C 42.980469 -216.609375 35.234375 -216.246094 28.460938 -214.863281 C 15.582031 -212.230469 4.984375 -205.914062 -3.324219 -195.914062 C -11.410156 -186.183594 -14.21875 -175.257812 -11.738281 -163.136719 C -9.207031 -150.753906 -2.394531 -140.40625 8.695312 -132.09375 C 16.0625 -126.523438 25.519531 -121.347656 37.070312 -116.566406 C 48.96875 -111.636719 58.117188 -107.757812 64.511719 -104.925781 C 88.195312 -94.257812 101.84375 -80.074219 105.464844 -62.371094 C 107.804688 -50.914062 105.511719 -40.734375 98.585938 -31.835938 C 91.808594 -23.136719 82.671875 -17.609375 71.171875 -15.257812 C 58.929688 -12.757812 47.800781 -13.453125 37.78125 -17.351562 C 27.777344 -21.242188 18.996094 -28.28125 11.441406 -38.46875 L 11.25 -38.722656 L 11.105469 -39.007812 C 9.4375 -42.195312 7.949219 -44.46875 6.636719 -45.824219 C 6.191406 -46.285156 5.828125 -46.582031 5.546875 -46.714844 C 5.636719 -46.671875 5.792969 -46.675781 6.011719 -46.71875 C 5.957031 -46.707031 5.929688 -46.703125 5.921875 -46.699219 C 6.015625 -46.734375 6.121094 -46.789062 6.238281 -46.871094 C 6.84375 -47.273438 7.230469 -47.855469 7.40625 -48.621094 C 7.433594 -48.738281 7.449219 -48.832031 7.449219 -48.902344 C 7.449219 -48.855469 7.453125 -48.78125 7.460938 -48.679688 C 7.488281 -48.332031 7.5625 -47.875 7.679688 -47.304688 C 7.945312 -46 11.796875 -34.054688 19.234375 -11.460938 L 15.386719 -10.191406 L 19.203125 -11.558594 C 19.285156 -11.324219 19.359375 -11.152344 19.429688 -11.035156 L 19.429688 -11.03125 C 19.390625 -11.078125 19.34375 -11.128906 19.28125 -11.183594 C 18.75 -11.644531 18.136719 -11.804688 17.4375 -11.664062 L 18.246094 -7.695312 L 16.660156 -11.421875 L 23.277344 -14.242188 L 24.867188 -10.515625 L 22.839844 -14.023438 C 23.484375 -14.394531 24.558594 -14.734375 26.070312 -15.042969 C 27.660156 -15.367188 29.980469 -15.253906 33.03125 -14.703125 C 35.507812 -14.253906 40.003906 -13.605469 46.523438 -12.757812 C 52.664062 -11.960938 60.726562 -12.582031 70.714844 -14.625 C 86.058594 -17.761719 98.585938 -25 108.296875 -36.335938 C 117.75 -47.375 120.976562 -60.234375 117.976562 -74.914062 L 121.945312 -75.722656 L 118.03125 -74.679688 C 114.5 -87.90625 106.984375 -98.96875 95.484375 -107.871094 C 87.945312 -113.789062 75.785156 -120.375 59 -127.628906 L 39.914062 -136.210938 C 33.445312 -139.136719 27.5625 -142.394531 22.261719 -145.980469 C 16.808594 -149.671875 12.144531 -153.949219 8.265625 -158.816406 C 4.242188 -163.871094 1.457031 -170.164062 -0.0820312 -177.707031 C -1.769531 -185.957031 0.808594 -193.835938 7.648438 -201.34375 C 14.15625 -208.492188 21.738281 -212.949219 30.402344 -214.71875 C 44.433594 -217.585938 58.117188 -214.792969 71.449219 -206.335938 C 76.949219 -202.703125 81.269531 -198.730469 84.414062 -194.417969 L 81.140625 -192.03125 L 84.324219 -194.53125 C 85.148438 -193.484375 85.945312 -192.429688 86.722656 -191.371094 C 87.492188 -190.316406 88.171875 -189.363281 88.753906 -188.511719 C 88.925781 -188.257812 89.078125 -188.058594 89.207031 -187.917969 C 89.238281 -187.882812 89.261719 -187.859375 89.277344 -187.847656 C 89.25 -187.871094 89.210938 -187.898438 89.15625 -187.933594 C 88.707031 -188.230469 88.316406 -188.378906 87.984375 -188.378906 C 88.1875 -188.378906 88.519531 -188.425781 88.976562 -188.519531 C 89.1875 -188.5625 89.347656 -188.601562 89.464844 -188.640625 L 89.476562 -188.644531 C 89.425781 -188.621094 89.363281 -188.589844 89.296875 -188.546875 C 88.902344 -188.3125 88.570312 -187.972656 88.300781 -187.53125 C 87.808594 -186.738281 87.660156 -185.878906 87.847656 -184.960938 C 87.792969 -185.214844 87.441406 -186.121094 86.785156 -187.675781 L 86.722656 -187.820312 L 76.796875 -217.46875 L 76.75 -217.710938 C 76.683594 -218.027344 76.617188 -218.277344 76.550781 -218.460938 C 76.535156 -218.503906 76.523438 -218.53125 76.515625 -218.542969 C 76.539062 -218.5 76.570312 -218.453125 76.613281 -218.394531 C 76.855469 -218.054688 77.199219 -217.785156 77.636719 -217.585938 C 78.238281 -217.308594 78.855469 -217.234375 79.484375 -217.363281 Z M 79.484375 -217.363281 "/></g></g><g style="fill:#ffffff;fill-opacity:1;"><g transform="translate(156.059935, 285.231836)"><path style="stroke:none" d=""/></g></g><g style="fill:#ffffff;fill-opacity:1;"><g transform="translate(275.874778, 291.108225)"><path style="stroke:none" d="M 17.980469 -10.015625 C 19.644531 -16.007812 23.203125 -20.617188 28.664062 -23.847656 C 34.179688 -27.109375 39.984375 -27.894531 46.082031 -26.199219 C 52.054688 -24.542969 56.605469 -20.957031 59.726562 -15.4375 C 62.847656 -9.917969 63.554688 -4.078125 61.84375 2.082031 C 60.128906 8.269531 56.539062 12.839844 51.078125 15.785156 C 45.675781 18.699219 39.953125 19.320312 33.917969 17.644531 C 27.972656 15.996094 23.417969 12.5 20.253906 7.15625 C 17.058594 1.761719 16.300781 -3.960938 17.980469 -10.015625 Z M 25.785156 -7.847656 C 24.722656 -4.011719 25.203125 -0.386719 27.226562 3.03125 C 29.28125 6.5 32.234375 8.769531 36.082031 9.835938 C 40.027344 10.929688 43.742188 10.535156 47.234375 8.652344 C 50.667969 6.800781 52.9375 3.886719 54.039062 -0.0859375 C 55.148438 -4.089844 54.695312 -7.878906 52.675781 -11.449219 C 50.65625 -15.019531 47.734375 -17.335938 43.914062 -18.394531 C 40.03125 -19.472656 36.324219 -18.964844 32.789062 -16.875 C 29.203125 -14.753906 26.867188 -11.742188 25.785156 -7.847656 Z M 25.785156 -7.847656 "/></g></g><g style="fill:#ffffff;fill-opacity:1;"><g transform="translate(35.877626, 308.853032)"><path style="stroke:none" d="M 78.6875 -221.328125 C 79.625 -221.515625 80.300781 -220.578125 80.71875 -218.515625 L 90.515625 -189.25 C 91.273438 -187.457031 91.707031 -186.300781 91.8125 -185.78125 C 91.914062 -185.257812 91.238281 -184.847656 89.78125 -184.546875 C 88.332031 -184.253906 87.378906 -184.253906 86.921875 -184.546875 C 86.460938 -184.847656 85.953125 -185.40625 85.390625 -186.21875 C 84.835938 -187.039062 84.1875 -187.960938 83.4375 -188.984375 C 82.695312 -190.003906 81.929688 -191.019531 81.140625 -192.03125 C 78.285156 -195.945312 74.304688 -199.585938 69.203125 -202.953125 C 56.847656 -210.796875 44.1875 -213.394531 31.21875 -210.75 C 23.414062 -209.15625 16.554688 -205.109375 10.640625 -198.609375 C 4.734375 -192.117188 2.484375 -185.421875 3.890625 -178.515625 C 5.304688 -171.609375 7.820312 -165.878906 11.4375 -161.328125 C 15.050781 -156.785156 19.414062 -152.785156 24.53125 -149.328125 C 29.65625 -145.867188 35.335938 -142.722656 41.578125 -139.890625 C 47.828125 -137.066406 54.191406 -134.210938 60.671875 -131.328125 C 77.734375 -123.953125 90.171875 -117.191406 97.984375 -111.046875 C 110.191406 -101.609375 118.175781 -89.832031 121.9375 -75.71875 C 125.207031 -59.75 121.6875 -45.738281 111.375 -33.6875 C 101.0625 -21.644531 87.773438 -13.960938 71.515625 -10.640625 C 61.097656 -8.515625 52.59375 -7.878906 46 -8.734375 C 39.414062 -9.597656 34.851562 -10.257812 32.3125 -10.71875 C 29.769531 -11.175781 27.957031 -11.296875 26.875 -11.078125 C 25.800781 -10.859375 25.132812 -10.671875 24.875 -10.515625 L 18.25 -7.703125 C 17.019531 -7.453125 16.066406 -8.28125 15.390625 -10.1875 C 7.898438 -32.9375 4.003906 -45.035156 3.703125 -46.484375 C 3.410156 -47.941406 3.328125 -48.953125 3.453125 -49.515625 C 3.585938 -50.085938 4.171875 -50.476562 5.203125 -50.6875 C 7.835938 -51.226562 11 -47.957031 14.6875 -40.875 C 28.875 -21.757812 47.429688 -14.546875 70.359375 -19.234375 C 80.878906 -21.378906 89.21875 -26.40625 95.375 -34.3125 C 101.539062 -42.226562 103.582031 -51.304688 101.5 -61.546875 C 98.15625 -77.898438 85.269531 -91.128906 62.84375 -101.234375 C 56.5 -104.046875 47.390625 -107.910156 35.515625 -112.828125 C 23.640625 -117.742188 13.890625 -123.085938 6.265625 -128.859375 C -5.640625 -137.773438 -12.957031 -148.925781 -15.6875 -162.3125 C -18.425781 -175.707031 -15.34375 -187.769531 -6.4375 -198.5 C 2.46875 -209.226562 13.832031 -216.003906 27.65625 -218.828125 C 34.789062 -220.285156 42.90625 -220.671875 52 -219.984375 C 61.101562 -219.296875 67.429688 -218.882812 70.984375 -218.75 Z M 78.6875 -221.328125 "/></g></g><g style="fill:#ffffff;fill-opacity:1;"><g transform="translate(156.059935, 285.231836)"><path style="stroke:none" d=""/></g></g><g style="fill:#ffffff;fill-opacity:1;"><g transform="translate(275.874778, 291.108225)"><path style="stroke:none" d="M 21.875 -8.921875 C 23.25 -13.867188 26.195312 -17.679688 30.71875 -20.359375 C 35.238281 -23.035156 40 -23.679688 45 -22.296875 C 49.882812 -20.941406 53.613281 -17.988281 56.1875 -13.4375 C 58.757812 -8.894531 59.335938 -4.082031 57.921875 1 C 56.515625 6.082031 53.585938 9.820312 49.140625 12.21875 C 44.703125 14.625 39.988281 15.132812 35 13.75 C 30.101562 12.394531 26.347656 9.507812 23.734375 5.09375 C 21.128906 0.6875 20.507812 -3.984375 21.875 -8.921875 Z M 21.875 -8.921875 "/></g></g><g transform="matrix(1,0,0,1,56,2)"><g clip-path="url(#b5e2be5b0b)"><g style="fill:#df2424;fill-opacity:1;"><g transform="translate(146.164606, 333.57655)"><path style="stroke:none" d="M 145.71875 -142.4375 C 139.914062 -116.675781 126.082031 -96.410156 104.21875 -81.640625 C 92.03125 -73.410156 79.820312 -68.238281 67.59375 -66.125 C 55.375 -64.007812 43.765625 -64.359375 32.765625 -67.171875 C 21.773438 -69.984375 11.566406 -74.914062 2.140625 -81.96875 C -7.285156 -89.03125 -15.375 -97.554688 -22.125 -107.546875 C -29.300781 -118.171875 -34.1875 -129.03125 -36.78125 -140.125 C -39.382812 -151.226562 -39.804688 -162.035156 -38.046875 -172.546875 C -36.285156 -183.066406 -32.4375 -192.941406 -26.5 -202.171875 C -20.570312 -211.410156 -12.6875 -219.351562 -2.84375 -226 C 3.875 -230.539062 10.53125 -233.90625 17.125 -236.09375 C 23.726562 -238.28125 30.023438 -239.570312 36.015625 -239.96875 C 42.003906 -240.375 47.445312 -239.898438 52.34375 -238.546875 C 57.238281 -237.191406 61.34375 -235.242188 64.65625 -232.703125 L 82 -244.40625 C 76.050781 -248.132812 69.710938 -251.023438 62.984375 -253.078125 C 56.265625 -255.128906 49.0625 -255.945312 41.375 -255.53125 C 33.695312 -255.113281 25.550781 -253.363281 16.9375 -250.28125 C 8.320312 -247.207031 -0.671875 -242.503906 -10.046875 -236.171875 C -23.640625 -226.992188 -34.703125 -216.679688 -43.234375 -205.234375 C -51.765625 -193.785156 -57.5625 -181.734375 -60.625 -169.078125 C -63.6875 -156.429688 -63.945312 -143.515625 -61.40625 -130.328125 C -58.863281 -117.140625 -53.320312 -104.21875 -44.78125 -91.5625 C -37.394531 -80.625 -28.4375 -71.148438 -17.90625 -63.140625 C -7.375 -55.128906 4.273438 -49.582031 17.046875 -46.5 C 29.828125 -43.414062 43.582031 -43.257812 58.3125 -46.03125 C 73.039062 -48.8125 88.289062 -55.53125 104.0625 -66.1875 C 114.0625 -72.9375 122.375 -79.910156 129 -87.109375 C 135.632812 -94.316406 140.957031 -101.265625 144.96875 -107.953125 C 148.976562 -114.648438 151.878906 -120.878906 153.671875 -126.640625 C 155.472656 -132.398438 156.59375 -137.140625 157.03125 -140.859375 Z M 145.71875 -142.4375 "/></g></g></g></g></g></svg>