<svg xmlns="http://www.w3.org/2000/svg" xmlns:xlink="http://www.w3.org/1999/xlink" width="500" zoomAndPan="magnify" viewBox="0 0 375 374.999991" height="500" preserveAspectRatio="xMidYMid meet" version="1.2"><defs><clipPath id="a13501ea9f"><rect x="0" width="148" y="0" height="328"/></clipPath><clipPath id="8b623443f1"><rect x="0" width="144" y="0" height="194"/></clipPath></defs><g id="eefc8e0d2f"><g transform="matrix(1,0,0,1,57,30)"><g clip-path="url(#a13501ea9f)"><g style="fill:#ffffff;fill-opacity:1;"><g transform="translate(1.346939, 249.574279)"><path style="stroke:none" d="M 74.519531 6.460938 C 61.105469 6.460938 49.390625 4 39.375 -0.917969 C 29.25 -5.894531 21.417969 -12.84375 15.886719 -21.765625 C 10.355469 -30.6875 7.589844 -40.996094 7.589844 -52.691406 L 7.589844 -56.140625 L 36.570312 -56.140625 L 36.570312 -52.691406 C 36.570312 -46.421875 38.015625 -40.664062 40.910156 -35.410156 C 43.769531 -30.214844 47.96875 -26.0625 53.5 -22.957031 C 59.082031 -19.820312 66.089844 -18.253906 74.519531 -18.253906 C 85.535156 -18.253906 93.976562 -20.8125 99.851562 -25.933594 C 105.585938 -30.933594 108.453125 -37.175781 108.453125 -44.660156 C 108.453125 -50.957031 107.160156 -55.9375 104.570312 -59.609375 C 101.878906 -63.421875 98.226562 -66.535156 93.617188 -68.953125 C 88.707031 -71.53125 83.050781 -73.789062 76.652344 -75.734375 C 70 -77.753906 63.054688 -80.027344 55.820312 -82.550781 C 41.742188 -87.417969 31.246094 -93.53125 24.332031 -100.886719 C 17.183594 -108.492188 13.613281 -118.351562 13.613281 -130.472656 C 13.433594 -140.476562 15.78125 -149.402344 20.652344 -157.253906 C 25.515625 -165.089844 32.382812 -171.199219 41.25 -175.589844 C 50.011719 -179.925781 60.347656 -182.09375 72.261719 -182.09375 C 84.015625 -182.09375 94.277344 -179.878906 103.046875 -175.453125 C 111.898438 -170.980469 118.796875 -164.792969 123.738281 -156.886719 C 128.675781 -148.988281 131.234375 -140.035156 131.410156 -130.03125 L 131.472656 -126.519531 L 102.433594 -126.519531 L 102.433594 -129.96875 C 102.433594 -134.25 101.308594 -138.523438 99.066406 -142.789062 C 96.859375 -146.980469 93.488281 -150.414062 88.949219 -153.09375 C 84.386719 -155.785156 78.574219 -157.128906 71.507812 -157.128906 C 62.78125 -157.28125 55.691406 -155.117188 50.238281 -150.636719 C 44.972656 -146.308594 42.339844 -140.257812 42.339844 -132.476562 C 42.339844 -125.945312 44.113281 -121.011719 47.652344 -117.679688 C 51.550781 -114.007812 57.113281 -110.957031 64.328125 -108.523438 L 90.957031 -99.605469 L 90.992188 -99.59375 C 99.566406 -96.507812 107.296875 -92.898438 114.179688 -88.769531 C 121.371094 -84.453125 126.996094 -78.867188 131.054688 -72.011719 C 135.140625 -65.113281 137.183594 -56.414062 137.183594 -45.914062 C 137.183594 -36.929688 134.851562 -28.445312 130.1875 -20.464844 C 125.511719 -12.457031 118.492188 -5.960938 109.136719 -0.96875 C 99.847656 3.984375 88.308594 6.460938 74.519531 6.460938 Z M 74.519531 -0.4375 C 87.160156 -0.4375 97.617188 -2.644531 105.890625 -7.058594 C 114.097656 -11.4375 120.210938 -17.066406 124.230469 -23.945312 C 128.265625 -30.851562 130.28125 -38.175781 130.28125 -45.914062 C 130.28125 -55.15625 128.5625 -62.679688 125.117188 -68.496094 C 121.652344 -74.351562 116.824219 -79.136719 110.632812 -82.851562 C 104.132812 -86.75 96.808594 -90.167969 88.65625 -93.101562 L 89.824219 -96.347656 L 88.730469 -93.078125 L 62.125 -101.984375 C 53.957031 -104.738281 47.554688 -108.292969 42.925781 -112.652344 C 37.933594 -117.347656 35.441406 -123.957031 35.441406 -132.476562 C 35.441406 -142.429688 38.914062 -150.261719 45.859375 -155.96875 C 52.617188 -161.523438 61.167969 -164.210938 71.507812 -164.03125 C 79.832031 -164.03125 86.8125 -162.363281 92.457031 -159.035156 C 98.121094 -155.691406 102.359375 -151.347656 105.171875 -146.003906 C 107.945312 -140.734375 109.332031 -135.386719 109.332031 -129.96875 L 105.882812 -129.96875 L 105.882812 -133.417969 L 127.960938 -133.417969 L 127.960938 -129.96875 L 124.511719 -129.90625 C 124.355469 -138.636719 122.148438 -146.410156 117.886719 -153.230469 C 113.625 -160.046875 107.644531 -165.402344 99.9375 -169.292969 C 92.144531 -173.226562 82.921875 -175.195312 72.261719 -175.195312 C 61.425781 -175.195312 52.109375 -173.265625 44.308594 -169.40625 C 36.617188 -165.597656 30.6875 -160.335938 26.515625 -153.617188 C 22.359375 -146.917969 20.355469 -139.203125 20.511719 -130.472656 C 20.511719 -120.175781 23.460938 -111.886719 29.359375 -105.609375 C 35.496094 -99.082031 45.074219 -93.566406 58.09375 -89.066406 C 65.242188 -86.574219 72.097656 -84.332031 78.660156 -82.335938 C 85.472656 -80.265625 91.527344 -77.84375 96.820312 -75.066406 C 102.414062 -72.132812 106.875 -68.304688 110.207031 -63.585938 C 113.636719 -58.726562 115.355469 -52.417969 115.355469 -44.660156 C 115.355469 -35.085938 111.699219 -27.109375 104.386719 -20.734375 C 97.210938 -14.480469 87.257812 -11.351562 74.519531 -11.351562 C 64.886719 -11.351562 56.753906 -13.214844 50.121094 -16.9375 C 43.445312 -20.6875 38.359375 -25.738281 34.863281 -32.082031 C 31.402344 -38.371094 29.667969 -45.242188 29.667969 -52.691406 L 33.121094 -52.691406 L 33.121094 -49.238281 L 11.039062 -49.238281 L 11.039062 -52.691406 L 14.488281 -52.691406 C 14.488281 -42.304688 16.910156 -33.210938 21.75 -25.402344 C 26.585938 -17.601562 33.476562 -11.503906 42.417969 -7.109375 C 51.472656 -2.664062 62.171875 -0.4375 74.519531 -0.4375 Z M 74.519531 -0.4375 "/></g></g><g style="fill:#000000;fill-opacity:1;"><g transform="translate(1.346939, 249.574279)"><path style="stroke:none" d="M 74.515625 3.015625 C 61.640625 3.015625 50.429688 0.671875 40.890625 -4.015625 C 31.359375 -8.703125 24 -15.222656 18.8125 -23.578125 C 13.632812 -31.941406 11.046875 -41.644531 11.046875 -52.6875 L 33.125 -52.6875 C 33.125 -45.832031 34.710938 -39.519531 37.890625 -33.75 C 41.066406 -27.976562 45.707031 -23.375 51.8125 -19.9375 C 57.914062 -16.507812 65.484375 -14.796875 74.515625 -14.796875 C 86.390625 -14.796875 95.585938 -17.640625 102.109375 -23.328125 C 108.640625 -29.015625 111.90625 -36.125 111.90625 -44.65625 C 111.90625 -51.6875 110.398438 -57.332031 107.390625 -61.59375 C 104.378906 -65.863281 100.320312 -69.335938 95.21875 -72.015625 C 90.113281 -74.691406 84.257812 -77.03125 77.65625 -79.03125 C 71.050781 -81.039062 64.148438 -83.300781 56.953125 -85.8125 C 43.398438 -90.488281 33.363281 -96.296875 26.84375 -103.234375 C 20.320312 -110.179688 17.0625 -119.257812 17.0625 -130.46875 C 16.894531 -139.832031 19.066406 -148.148438 23.578125 -155.421875 C 28.097656 -162.703125 34.5 -168.390625 42.78125 -172.484375 C 51.0625 -176.585938 60.890625 -178.640625 72.265625 -178.640625 C 83.472656 -178.640625 93.210938 -176.546875 101.484375 -172.359375 C 109.765625 -168.179688 116.207031 -162.410156 120.8125 -155.046875 C 125.414062 -147.691406 127.800781 -139.332031 127.96875 -129.96875 L 105.875 -129.96875 C 105.875 -134.820312 104.617188 -139.628906 102.109375 -144.390625 C 99.609375 -149.160156 95.804688 -153.050781 90.703125 -156.0625 C 85.597656 -159.070312 79.203125 -160.578125 71.515625 -160.578125 C 61.972656 -160.742188 54.148438 -158.316406 48.046875 -153.296875 C 41.941406 -148.285156 38.890625 -141.347656 38.890625 -132.484375 C 38.890625 -124.953125 41.019531 -119.175781 45.28125 -115.15625 C 49.550781 -111.144531 55.53125 -107.84375 63.21875 -105.25 C 70.914062 -102.65625 79.785156 -99.6875 89.828125 -96.34375 C 98.191406 -93.332031 105.71875 -89.816406 112.40625 -85.796875 C 119.09375 -81.785156 124.316406 -76.601562 128.078125 -70.25 C 131.847656 -63.894531 133.734375 -55.785156 133.734375 -45.921875 C 133.734375 -37.554688 131.554688 -29.648438 127.203125 -22.203125 C 122.859375 -14.765625 116.296875 -8.703125 107.515625 -4.015625 C 98.734375 0.671875 87.734375 3.015625 74.515625 3.015625 Z M 74.515625 3.015625 "/></g></g></g></g><g transform="matrix(1,0,0,1,125,122)"><g clip-path="url(#8b623443f1)"><g style="fill:#000000;fill-opacity:1;"><g transform="translate(0.794956, 150.815314)"><path style="stroke:none" d="M 116.546875 -21.203125 C 105.367188 -10.679688 92.109375 -5.421875 76.765625 -5.421875 C 68.210938 -5.421875 60.648438 -6.898438 54.078125 -9.859375 C 47.503906 -12.816406 42.023438 -16.757812 37.640625 -21.6875 C 33.253906 -26.625 29.9375 -32.320312 27.6875 -38.78125 C 25.445312 -45.25 24.328125 -51.992188 24.328125 -59.015625 C 24.328125 -66.460938 25.503906 -73.28125 27.859375 -79.46875 C 30.210938 -85.664062 33.523438 -91.007812 37.796875 -95.5 C 42.078125 -99.988281 47.148438 -103.492188 53.015625 -106.015625 C 58.878906 -108.535156 65.257812 -109.796875 72.15625 -109.796875 C 76.875 -109.796875 81.175781 -109.25 85.0625 -108.15625 C 88.957031 -107.0625 92.410156 -105.632812 95.421875 -103.875 C 98.429688 -102.125 100.894531 -100.125 102.8125 -97.875 C 104.726562 -95.632812 106.070312 -93.363281 106.84375 -91.0625 L 119 -91.0625 C 117.363281 -94.789062 115.253906 -98.242188 112.671875 -101.421875 C 110.097656 -104.597656 106.894531 -107.335938 103.0625 -109.640625 C 99.226562 -111.941406 94.734375 -113.75 89.578125 -115.0625 C 84.429688 -116.375 78.570312 -117.03125 72 -117.03125 C 62.46875 -117.03125 53.78125 -115.660156 45.9375 -112.921875 C 38.101562 -110.179688 31.390625 -106.265625 25.796875 -101.171875 C 20.210938 -96.078125 15.882812 -89.941406 12.8125 -82.765625 C 9.75 -75.585938 8.21875 -67.5625 8.21875 -58.6875 C 8.21875 -51.007812 9.445312 -43.523438 11.90625 -36.234375 C 14.375 -28.953125 18.179688 -22.488281 23.328125 -16.84375 C 28.484375 -11.207031 35.0625 -6.660156 43.0625 -3.203125 C 51.0625 0.242188 60.597656 1.96875 71.671875 1.96875 C 78.679688 1.96875 84.953125 1.3125 90.484375 0 C 96.023438 -1.3125 100.847656 -2.925781 104.953125 -4.84375 C 109.066406 -6.757812 112.492188 -8.8125 115.234375 -11 C 117.972656 -13.195312 120.050781 -15.117188 121.46875 -16.765625 Z M 116.546875 -21.203125 "/></g></g><g style="fill:#000000;fill-opacity:1;"><g transform="translate(111.901128, 150.815314)"><path style="stroke:none" d="M 13.15625 -7.0625 C 13.15625 -9.476562 14.03125 -11.5625 15.78125 -13.3125 C 17.53125 -15.0625 19.613281 -15.9375 22.03125 -15.9375 C 24.4375 -15.9375 26.515625 -15.0625 28.265625 -13.3125 C 30.023438 -11.5625 30.90625 -9.476562 30.90625 -7.0625 C 30.90625 -4.65625 30.023438 -2.570312 28.265625 -0.8125 C 26.515625 0.9375 24.4375 1.8125 22.03125 1.8125 C 19.613281 1.8125 17.53125 0.9375 15.78125 -0.8125 C 14.03125 -2.570312 13.15625 -4.65625 13.15625 -7.0625 Z M 13.15625 -7.0625 "/></g></g></g></g></g></svg>